<svg id="SvgjsSvg1012" width="288" height="288" xmlns="http://www.w3.org/2000/svg" version="1.1" xmlns:xlink="http://www.w3.org/1999/xlink" xmlns:svgjs="http://svgjs.com/svgjs"><defs id="SvgjsDefs1013"></defs><g id="SvgjsG1014"><svg xmlns="http://www.w3.org/2000/svg" id="svg6485" version="1.1" viewBox="0 0 32 32" width="288" height="288"><g id="layer1" transform="translate(0 -1020.362)" fill="#182e76" class="color000 svgShape"><path style="line-height:normal;text-indent:0;text-align:start;text-decoration-line:none;text-decoration-style:solid;text-decoration-color:#000;text-transform:none;block-progression:tb;isolation:auto;mix-blend-mode:normal" id="path12487" fill="#182e76" fill-opacity="1" fill-rule="nonzero" stroke="none" stroke-dasharray="none" stroke-dashoffset="0" stroke-linecap="round" stroke-linejoin="round" stroke-miterlimit="4" stroke-opacity="1" stroke-width="1" d="M4.975 1027.362c-1.1 0-2 .9-2 2v7.5a.5.5 0 1 0 1 0v-7.5c0-.563.437-1 1-1h15c.563 0 1 .437 1 1v10c0 .563-.437 1-1 1h-6.5a.5.5 0 1 0 0 1h6.5c1.1 0 2-.9 2-2v-8h4.19c.417 0 .634.123.841.33.164.164.302.406.434.67h-3.932a.5.5 0 1 0 0 1H24v3.66c0 .735.608 1.34 1.342 1.34H30v1.5h-.8a.5.5 0 1 0 0 1h.8v.5c0 .563-.437 1-1 1h-2a2.758 2.758 0 0 0-2.75-2.75 2.758 2.758 0 0 0-2.75 2.75h-9a2.758 2.758 0 0 0-2.75-2.75 2.758 2.758 0 0 0-2.75 2.75H4.5a.488.488 0 0 1-.5-.5v-.5h1.493a.5.5 0 1 0 0-1H1.5a.5.5 0 1 0 0 1H3v.5c0 .823.678 1.5 1.5 1.5h2.696a2.757 2.757 0 0 0 2.554 1.75c1.16 0 2.152-.73 2.555-1.75h9.39a2.757 2.757 0 0 0 2.555 1.75c1.16 0 2.152-.73 2.555-1.75H29c1.1 0 2-.9 2-2v-.922a.5.5 0 0 0 0-.16v-2.418a.5.5 0 0 0-.045-.205l-2.5-5.502c-.172-.38-.382-.81-.742-1.17a2.165 2.165 0 0 0-1.549-.623h-4.189v-1c0-1.1-.9-2-2-2h-15zm10.502 4.084a.5.5 0 0 0-.344.15l-3.656 3.622-1.656-1.658a.5.5 0 1 0-.71.707l2.01 2.01a.5.5 0 0 0 .707 0l4.008-3.971a.5.5 0 0 0-.36-.862zm9.523 1.916h2.907l1.816 4h-4.38a.329.329 0 0 1-.343-.34v-3.66zm-22.55 5a.5.5 0 0 0 .05 1h4a.5.5 0 1 0 0-1h-4a.5.5 0 0 0-.05 0zm7.3 2.25c.973 0 1.75.778 1.75 1.75 0 .973-.777 1.75-1.75 1.75-.972 0-1.75-.777-1.75-1.75 0-.972.778-1.75 1.75-1.75zm14.5 0c.973 0 1.75.778 1.75 1.75 0 .973-.777 1.75-1.75 1.75-.972 0-1.75-.777-1.75-1.75 0-.972.778-1.75 1.75-1.75zm-14.5 1a.75.75 0 0 0-.75.75.75.75 0 0 0 .75.75.75.75 0 0 0 .75-.75.75.75 0 0 0-.75-.75zm14.5 0a.75.75 0 0 0-.75.75.75.75 0 0 0 .75.75.75.75 0 0 0 .75-.75.75.75 0 0 0-.75-.75z" baseline-shift="baseline" clip-rule="nonzero" color="#000" color-interpolation="sRGB" color-interpolation-filters="linearRGB" color-rendering="auto" direction="ltr" display="inline" font-family="sans-serif" font-size="medium" font-stretch="normal" font-style="normal" font-variant="normal" font-weight="normal" image-rendering="auto" letter-spacing="normal" opacity="1" overflow="visible" paint-order="fill markers stroke" shape-rendering="auto" text-anchor="start" text-decoration="none" text-rendering="auto" visibility="visible" word-spacing="normal" writing-mode="lr-tb" class="color000 svgShape"></path></g></svg></g></svg>