<svg id="SvgjsSvg1014" width="288" height="288" xmlns="http://www.w3.org/2000/svg" version="1.1" xmlns:xlink="http://www.w3.org/1999/xlink" xmlns:svgjs="http://svgjs.com/svgjs"><defs id="SvgjsDefs1015"></defs><g id="SvgjsG1016"><svg xmlns="http://www.w3.org/2000/svg" data-name="Layer 1" viewBox="0 0 128 128" width="288" height="288"><path d="M53.91024 99.66314L36.999 122.13726l-.14745-12.93677a1.94223 1.94223 0 0 0-.75973-1.51221 2.03942 2.03942 0 0 0-1.67961-.37329l-14.68137 3.23444L33.98545 94.5136A25.4139 25.4139 0 0 1 32.69925 90L14.69479 110.25543a2.90162 2.90162 0 0 0-.31053 3.31372 3.009 3.009 0 0 0 2.995 1.49689 1.84633 1.84633 0 0 0 .19335-.03247L32.879 111.6607l.15527 13.50671a2.93332 2.93332 0 0 0 2.06735 2.68268 3.03615 3.03615 0 0 0 3.33-1.02057l18.32513-24.35065A18.70661 18.70661 0 0 1 53.91024 99.66314zM102.49034 102.58l-3.26762-.00427H97.18863l7.08825 7.97375L89.5946 107.315a2.032 2.032 0 0 0-1.67968.37329 1.94223 1.94223 0 0 0-.75973 1.51221l-.14648 12.9339L70.51187 100.21368a15.30967 15.30967 0 0 1-2.93408 2.69885l18.04908 23.98A3.005 3.005 0 0 0 87.95984 128a3.08023 3.08023 0 0 0 .94338-.14893 2.954 2.954 0 0 0 2.0712-2.7428l.15331-13.44659 15.30634 3.37189a1.84632 1.84632 0 0 0 .19335.03247 3.00161 3.00161 0 0 0 2.996-1.49786 2.9181 2.9181 0 0 0-.34862-3.35571zM62.00229 20.99969A28.99954 28.99954 0 1 0 91.001 50.00024 29.03275 29.03275 0 0 0 62.00229 20.99969zm0 53.99915A24.9996 24.9996 0 1 1 87.0012 50.00024 25.02721 25.02721 0 0 1 62.00229 74.99883z" fill="#182e76" class="color000 svgShape"></path><path d="M75.281,45.18585l-7.95083-1.12109-3.54477-6.97156a2.00038,2.00038,0,0,0-3.56625,0L56.6744,44.06475l-7.95083,1.12109a2.00012,2.00012,0,0,0-1.09468,3.43353l5.71655,5.40912-1.34662,7.62292a2.00024,2.00024,0,0,0,2.87878,2.12885l7.12469-3.63568L69.127,63.78027a2.00024,2.00024,0,0,0,2.87878-2.12885L70.65914,54.0285l5.71655-5.40912A2.00012,2.00012,0,0,0,75.281,45.18585Zm-8.153,6.67664a1.99759,1.99759,0,0,0-.59568,1.80078l.8359,4.72943-4.45684-2.27441a1.9986,1.9986,0,0,0-1.81828,0l-4.45684,2.27441.8359-4.72943a1.99759,1.99759,0,0,0-.59568-1.80078l-3.48325-3.29584,4.87088-.68652A1.99977,1.99977,0,0,0,59.768,46.806l2.23428-4.39447L64.23657,46.806a1.99977,1.99977,0,0,0,1.50384,1.07416l4.87088.68652Z" fill="#182e76" class="color000 svgShape"></path><path d="M72.16884,91.71636c.753-.17682,2.4272.59741,3.8329,1.29138V88.59948a7.799,7.799,0,0,0-4.74107-.77954c-2.2792.53223-3.91292,2.71869-5.49292,4.83392-.99214,1.32806-2.49208,3.33588-3.29087,3.34467H62.473c-.791,0-2.38466-2.042-3.33677-3.26263-1.62786-2.08594-3.31138-4.2431-5.61011-4.73041a4.84557,4.84557,0,0,0-1.01363-.10352c-1.953,0-3.9969,1.06934-5.98314,2.10931-1.50482.78906-3.783,1.97852-4.53691,1.62988-.6572-.30176-1.17475-2.7724-1.48431-4.249-.54685-2.60834-1.11226-5.30652-3.01354-6.75867-1.88761-1.44238-4.67948-1.32812-7.3864-1.2168-1.45111.06152-4.15509.1709-4.62187-.38672-.4951-.5957.15234-3.10736.54-4.60931.65232-2.52826,1.32611-5.14343.29-7.20593-1.04976-2.079-3.59457-3.15521-6.05638-4.19525-1.3476-.56927-3.8553-1.62982-4.0301-2.34467-.17284-.71191,1.57415-2.76166,2.51259-3.86224,1.71868-2.01752,3.49594-4.10345,3.4725-6.42957-.02637-2.31055-1.84172-4.3515-3.59848-6.32611-.96675-1.08588-2.76648-3.10931-2.60633-3.83588.15527-.69922,2.62489-1.79974,3.952-2.39056,2.45009-1.0918,4.98416-2.2207,5.99974-4.33295.9941-2.06244.2705-4.65326-.42869-7.15906-.4199-1.502-1.122-4.01654-.625-4.64056.51951-.65039,3.21666-.59277,4.82889-.55469,2.63465.05957,5.35035.11719,7.12664-1.30078,1.85051-1.47552,2.35927-4.16589,2.85144-6.76746.28319-1.49408.75583-3.996,1.4267-4.31927.73044-.35352,3.10924.832,4.53008,1.542,2.36806,1.18262,4.81131,2.40424,7.07391,1.87885,2.27724-.53119,3.91-2.71674,5.49-4.83093C59.228,6.01653,60.72891,4.00781,61.52966,4h.00488c.791,0,2.38369,2.041,3.33579,3.26263,1.62688,2.0849,3.30943,4.24213,5.60815,4.73035,2.2626.48047,4.66581-.7851,6.99872-2.00775,1.50482-.78809,3.77327-1.97357,4.533-1.63184.65915.30371,1.17671,2.77637,1.48724,4.25385.54685,2.60742,1.11128,5.30463,3.01354,6.75873,1.88664,1.43939,4.67753,1.32025,7.38249,1.21381,1.45306-.0625,4.15509-.17187,4.62285.3877.497.59473-.15136,3.10834-.53806,4.60931-.65232,2.52826-1.32611,5.14349-.289,7.204,1.04878,2.0791,3.59457,3.15619,6.05735,4.1972,1.34662.56934,3.85432,1.62988,4.02814,2.34271.17284.71094-1.57415,2.76172-2.51259,3.86224-1.71868,2.01758-3.49594,4.10345-3.47153,6.4267.02539,2.31342,1.84269,4.35638,3.59945,6.33093.96578,1.08594,2.76453,3.10736,2.6034,3.83392-.15429.70117-2.62586,1.80273-3.95393,2.39355-.30919.13782-.6196.27631-.92824.41724.26714.09418.53367.19092.79379.30743a10.03377,10.03377,0,0,1,3.22252,2.26093c2.25094-1.06488,4.28613-2.31586,4.77195-4.51489.60251-2.72162-1.49408-5.07806-3.52133-7.35632-1.08882-1.22363-2.579-2.89935-2.58778-3.71576-.00879-.82617,1.45013-2.538,2.51649-3.789,1.97159-2.31348,4.00959-4.706,3.35435-7.4032-.65036-2.668-3.5516-3.89447-6.35714-5.081-1.5429-.65234-3.65609-1.5459-4.04377-2.31244-.36034-.7168.18944-2.84863.59079-4.40521.72555-2.8125,1.54681-5.99994-.26268-8.17078-1.72942-2.07422-4.84647-1.94531-7.86-1.82227-1.71282.07031-4.05256.166-4.78885-.39551-.72067-.55072-1.18745-2.77631-1.52825-4.40125C86.801,8.87585,86.17019,5.86614,83.682,4.71966c-2.54383-1.166-5.34742.30078-8.0602,1.72168-1.46576.76758-3.47348,1.81927-4.31231,1.63959-.873-.18549-2.26748-1.97357-3.286-3.27924C66.17106,2.42675,64.261-.01264,61.48864.00006c-2.78015.0293-4.64921,2.53119-6.45773,4.952-.98629,1.32031-2.33779,3.12885-3.19322,3.329-.85153.19336-2.89148-.82025-4.37969-1.56244-2.73035-1.36328-5.55445-2.77338-8.05531-1.56543-2.48622,1.2002-3.06139,4.2392-3.617,7.17859-.30663,1.61816-.72555,3.83295-1.41693,4.38373-.6445.51465-2.89831.46484-4.54375.42871-3.08971-.06738-6.28976-.13867-8.04359,2.05957-1.77336,2.2226-.88473,5.40417-.10058,8.21082.40526,1.45013,1.01753,3.64252.67673,4.34851-.37987.79-2.48524,1.72852-4.02326,2.41309-2.77136,1.23529-5.63745,2.51166-6.22922,5.17957-.60251,2.72363,1.49505,5.081,3.52328,7.36029,1.08784,1.2226,2.578,2.8974,2.5868,3.7099.00879.82806-1.45111,2.541-2.51747,3.79193-1.97159,2.31342-4.00959,4.70593-3.35435,7.4032.65134,2.66986,3.55356,3.89642,6.36007,5.08289,1.54192.65137,3.65414,1.54492,4.04084,2.31055.36034.7168-.18944,2.85052-.59079,4.40717-.72555,2.81146-1.54778,5.9989.26171,8.17078,1.73137,2.0722,4.84744,1.9433,7.85806,1.82123,1.70989-.07031,4.05353-.168,4.79276.39844.72067.5498,1.18647,2.77533,1.52728,4.40033.61032,2.9101,1.24018,5.91882,3.72738,7.06238,2.54383,1.1748,5.34938-.29785,8.0641-1.71967,1.46283-.7666,3.4686-1.81836,4.31134-1.6377.872.18555,2.26748,1.97357,3.287,3.27924,1.84172,2.36133,3.74691,4.8017,6.489,4.8017h.04687c2.7782-.03027,4.64628-2.53217,6.45382-4.95111C69.96,93.72613,71.31244,91.91558,72.16884,91.71636Z" fill="#182e76" class="color000 svgShape"></path><path d="M115.22324,84.58056a5.60744,5.60744,0,0,0-5.074-8.44965l-3.52652-.00287a7.5752,7.5752,0,0,0,.11071-1.69342c-.18871-1.71136-.68619-6.22174-4.44542-7.88336a6.18128,6.18128,0,0,0-2.53151-.55225q-.144,0-.28783.0072a6.004,6.004,0,0,0-3.442,1.33276,6.53012,6.53012,0,0,0-2.20645,5.81995c.00738.14569.01648.29059.01648.432v.49341c-.52274,1.06165-2.03049,3.42163-2.562,4.25336l-.02673.04193c-.30815.09192-.659.19452-1.01967.29883a3.97691,3.97691,0,0,0-2.2272-.67963H84.00133a4.00382,4.00382,0,0,0-3.99983,3.99994V93.99853a4.00382,4.00382,0,0,0,3.99983,3.99994h3.99983a3.96114,3.96114,0,0,0,2.53383-.93054c.073.0011.14227.00488.21728.00488.35143,0,.76925-.01251,1.18879-.02594.20336-.00647.40733-.01331.59989-.01764a6.76032,6.76032,0,0,0,1.83159.82379,4.0015,4.0015,0,0,0,1.03108.137l12.00314.0033a5.80986,5.80986,0,0,0,5.84874-5.75677c0-.03119-.00024-.06207-.00073-.09308a5.67142,5.67142,0,0,0,1.14607-3.42084c0-.16193-.00714-.32074-.02057-.47583a5.654,5.654,0,0,0,.88192-3.03613A5.111,5.111,0,0,0,115.22324,84.58056Zm-27.22208,9.418H84.00133V81.99877h3.99983Zm22.14808-10.5246s1.11311.85413,1.11311,1.73669a1.80642,1.80642,0,0,1-1.85295,1.75671,2.74184,2.74184,0,0,1,.9916,1.75525,1.80538,1.80538,0,0,1-1.84758,1.759,3.06474,3.06474,0,0,1,.70224,1.75488,1.80328,1.80328,0,0,1-1.84892,1.75684L95.41026,93.99c-.6445-.1731-1.11976-.68451-1.7368-.90259a2.998,2.998,0,0,0-.78134-.06262c-.26793,0-.57761.00885-.89114.01862V82.32818a14.83735,14.83735,0,0,0,1.888-.6192c.23766-.50226,3.94758-5.93549,3.94758-7.00708v-1.111c0-1.0957-.3001-2.33557.67539-3.11786a2.03882,2.03882,0,0,1,1.15675-.47192q.04394-.0022.08783-.0022a2.26188,2.26188,0,0,1,.91451.21082c1.57232.69495,1.92612,3.20734,2.08524,4.65a23.82308,23.82308,0,0,1-1.28968,5.264l8.68267.00714a1.66944,1.66944,0,0,1,1.85093,1.585A1.8057,1.8057,0,0,1,110.14924,83.47393Z" fill="#182e76" class="color000 svgShape"></path></svg></g></svg>