<svg id="SvgjsSvg1021" width="288" height="288" xmlns="http://www.w3.org/2000/svg" version="1.1" xmlns:xlink="http://www.w3.org/1999/xlink" xmlns:svgjs="http://svgjs.com/svgjs"><defs id="SvgjsDefs1022"></defs><g id="SvgjsG1023"><svg xmlns="http://www.w3.org/2000/svg" viewBox="0 0 64 64" width="288" height="288"><path d="M32 61.5c-13.239 0-24.788-8.942-28.086-21.747a1.001 1.001 0 0 1 .72-1.218c.53-.134 1.08.185 1.218.72C8.921 51.175 19.674 59.5 32 59.5c14.888 0 27-12.112 27-27a1 1 0 1 1 2 0c0 15.99-13.01 29-29 29zm-28-29a1 1 0 0 1-1-1c0-15.99 13.01-29 29-29 13.239 0 24.788 8.942 28.086 21.747a1.001 1.001 0 0 1-1.938.498C55.079 12.825 44.326 4.5 32 4.5c-14.888 0-27 12.112-27 27a1 1 0 0 1-1 1z" fill="#182e76" class="color000 svgShape"></path><path d="M4 32.5a.997.997 0 0 1-.707-.293l-3-3a.999.999 0 1 1 1.414-1.414l3 3A.999.999 0 0 1 4 32.5z" fill="#182e76" class="color000 svgShape"></path><path d="M4 32.5a.999.999 0 0 1-.707-1.707l3-3a.999.999 0 1 1 1.414 1.414l-3 3A.997.997 0 0 1 4 32.5zm59 3a.997.997 0 0 1-.707-.293l-3-3a.999.999 0 1 1 1.414-1.414l3 3A.999.999 0 0 1 63 35.5z" fill="#182e76" class="color000 svgShape"></path><path d="M57 35.5a.999.999 0 0 1-.707-1.707l3-3a.999.999 0 1 1 1.414 1.414l-3 3A.997.997 0 0 1 57 35.5zM13.998 54.945a1 1 0 0 1-1-1V28.49a1 1 0 1 1 2 0v25.455a1 1 0 0 1-1 1zm36.004.002a1 1 0 0 1-1-1V28.49a1 1 0 1 1 2 0v25.457a1 1 0 0 1-1 1z" fill="#182e76" class="color000 svgShape"></path><path d="M50.002 29.49H13.998a1 1 0 1 1 0-2h36.004a1 1 0 1 1 0 2z" fill="#182e76" class="color000 svgShape"></path><path d="M13.997 29.49a1 1 0 0 1-.857-1.515l3-5.002a1 1 0 0 1 1.715 1.029l-3 5.002a.997.997 0 0 1-.858.486zm36.006 0a.998.998 0 0 1-.858-.485l-3-5.002a1 1 0 1 1 1.715-1.029l3 5.002a1 1 0 0 1-.857 1.514z" fill="#182e76" class="color000 svgShape"></path><path d="M47.002 24.488H16.998a1 1 0 1 1 0-2h30.004a1 1 0 1 1 0 2z" fill="#182e76" class="color000 svgShape"></path><path d="M27.999 29.49a1 1 0 0 1-.981-1.197l1-5.002a.993.993 0 0 1 1.177-.784 1 1 0 0 1 .784 1.177l-1 5.002a1 1 0 0 1-.98.804zm8 0a.998.998 0 0 1-.979-.804l-1-5.002a1 1 0 0 1 1.961-.393l1 5.002a1 1 0 0 1-.982 1.197z" fill="#182e76" class="color000 svgShape"></path><path d="M27.998 35.49a1 1 0 0 1-1-1v-6a1 1 0 1 1 2 0v6a1 1 0 0 1-1 1zm8.002 0a1 1 0 0 1-1-1v-6a1 1 0 1 1 2 0v6a1 1 0 0 1-1 1z" fill="#182e76" class="color000 svgShape"></path><path d="M36.001 35.49c-.08 0-.162-.01-.243-.03l-4-1a1 1 0 0 1 .484-1.94l4 1a1 1 0 0 1-.241 1.97z" fill="#182e76" class="color000 svgShape"></path><path d="M27.997 35.49a1 1 0 0 1-.241-1.97l4.002-1a.997.997 0 0 1 1.212.728.998.998 0 0 1-.728 1.212l-4.002 1c-.081.02-.163.03-.243.03zm13.007 12.002H22.996a1 1 0 1 1 0-2h18.008a1 1 0 1 1 0 2zm0-3.992H22.996a1 1 0 1 1 0-2h18.008a1 1 0 1 1 0 2zm-5.002 7.994h-8.004a1 1 0 1 1 0-2h8.004a1 1 0 1 1 0 2z" fill="#182e76" class="color000 svgShape"></path></svg></g></svg>