<svg id="SvgjsSvg1023" width="288" height="288" xmlns="http://www.w3.org/2000/svg" version="1.1" xmlns:xlink="http://www.w3.org/1999/xlink" xmlns:svgjs="http://svgjs.com/svgjs"><defs id="SvgjsDefs1024"></defs><g id="SvgjsG1025"><svg xmlns="http://www.w3.org/2000/svg" data-name="Layer 1" viewBox="0 0 512 512" width="288" height="288"><path d="M67.158 205.5h2.347a6 6 0 0 0 0-12h-2.347a6 6 0 0 0 0 12zm43.491-12H92.92a6 6 0 0 0 0 12h17.729a6 6 0 0 0 0-12zm23.795 12h127.085a6 6 0 0 0 0-12H134.444a6 6 0 1 0 0 12zm-67.286-50h2.347a6 6 0 0 0 0-12h-2.347a6 6 0 0 0 0 12zm43.491-12H92.92a6 6 0 0 0 0 12h17.729a6 6 0 0 0 0-12zm23.795 12h127.085a6 6 0 0 0 0-12H134.444a6 6 0 1 0 0 12zm-67.286-50h2.347a6 6 0 0 0 0-12h-2.347a6 6 0 0 0 0 12zm43.491-12H92.92a6 6 0 0 0 0 12h17.729a6 6 0 0 0 0-12zm23.795 12h127.085a6 6 0 0 0 0-12H134.444a6 6 0 0 0 0 12zm-67.286 150h2.347a6 6 0 0 0 0-12h-2.347a6 6 0 0 0 0 12zm43.491-12H92.92a6 6 0 0 0 0 12h17.729a6 6 0 0 0 0-12zm100.88 0h-77.085a6 6 0 1 0 0 12h77.085a6 6 0 0 0 0-12zM208.6 344.212h-12.822a6 6 0 0 0 0 12H208.6a6 6 0 0 0 0-12zm-34.072 0h-44.5a6 6 0 1 0 0 12h44.5a6 6 0 1 0 0-12z" fill="#182e76" class="color000 svgShape"></path><path d="m466.126 325.3-.015-.1a15.948 15.948 0 0 0-15.832-13.54h-57.7l-4.763-34.168-.014-.1a17.869 17.869 0 0 0-17.737-15.17h-13v-12.181a45.478 45.478 0 0 0-55.465-44.4V172.59h68.331a6 6 0 0 0 6-6V68.666A43.217 43.217 0 0 0 334.8 25.552V25.5H75.761a48.722 48.722 0 0 0-48.667 48.667V419.5a6 6 0 0 0 9.748 4.686l29.07-23.253 29.069 23.253a6 6 0 0 0 7.5 0l29.065-23.251 29.063 23.251a6 6 0 0 0 7.5 0l29.064-23.251 18.815 15.052-3.018 21.654a6.043 6.043 0 0 0-.058.828 29.942 29.942 0 0 0 29.908 29.908h75.927a26.1 26.1 0 0 0 24.809 18.123h115.3a26.081 26.081 0 0 0 26.052-26.052 6.042 6.042 0 0 0-.057-.828Zm-121.067-75.259v12.174h-67.018v-12.174a33.509 33.509 0 0 1 67.018 0Zm18.866-181.375v91.924h-62.331V68.666a31.166 31.166 0 1 1 62.331 0Zm-163.01 319.9a6 6 0 0 0-7.5 0l-29.065 23.251-29.063-23.251a6 6 0 0 0-7.5 0l-29.058 23.25-29.069-23.252a6 6 0 0 0-7.5 0l-23.07 18.454V74.167A36.709 36.709 0 0 1 75.761 37.5h227.178a43.036 43.036 0 0 0-13.345 31.166V210.2a45.537 45.537 0 0 0-23.553 39.846v12.174h-13a17.869 17.869 0 0 0-17.737 15.17l-.015.1-17.38 124.67Zm24 50.29 22.253-159.65a5.926 5.926 0 0 1 5.875-4.99h13v20.076a6 6 0 0 0 12 0v-20.077h67.018v20.076a6 6 0 0 0 12 0v-20.076h13a5.926 5.926 0 0 1 5.875 4.989l4.523 32.451h-28.328A15.948 15.948 0 0 0 336.3 325.2l-.015.1-18.27 131.078h-75.2a17.928 17.928 0 0 1-17.905-17.523ZM458.854 474.5h-115.3a14.069 14.069 0 0 1-14.047-13.672l18.653-133.811a4.006 4.006 0 0 1 3.971-3.362h98.148a4.006 4.006 0 0 1 3.971 3.362l18.65 133.811a14.069 14.069 0 0 1-14.046 13.672Z" fill="#182e76" class="color000 svgShape"></path><path d="M434.342 335.6a6 6 0 0 0-6 6v19.182a27.137 27.137 0 0 1-54.274 0V341.6a6 6 0 0 0-12 0v19.182a39.137 39.137 0 0 0 78.274 0V341.6a6 6 0 0 0-6-6zM102 310.021h.065a6 6 0 0 0 .064-12l-28.294-.3L62.5 297.6h-.065a6 6 0 0 0-.064 12l11.341.122a11 11 0 0 1 9.161 5.105l-20.556-.22h-.065a6 6 0 0 0-.063 12l20.566.221a11 11 0 0 1-9.278 4.907l-11.342-.122h-.065a6 6 0 0 0-4.17 10.31l28.059 27.091a6 6 0 0 0 8.335-8.633l-17.479-16.874a22.972 22.972 0 0 0 18.906-16.546l6.1.065h.066a6 6 0 0 0 .063-12l-6.087-.065a22.817 22.817 0 0 0-1.957-5.028z" fill="#182e76" class="color000 svgShape"></path></svg></g></svg>